<svg version="1.1" id="Layer_1" xmlns="http://www.w3.org/2000/svg" xmlns:xlink="http://www.w3.org/1999/xlink" x="0px" y="0px" viewBox="0 0 512 512" style="enable-background:new 0 0 512 512;" xml:space="preserve">
<style type="text/css">
	.st0{fill:#E9022E;}
	.st1{fill:#E8D780;}
	.st2{fill:#020202;}
	.st3{fill:#FEFEFE;}
	.st4{fill:#FDFDFD;}
	.st5{fill:#EEEEEE;}
	.st6{fill:#F5F5F5;}
	.st7{fill:#010101;}
	.st8{fill:#FAFAFA;}
	.st9{fill:#D8D8D8;}
	.st10{fill:#030303;}
	.st11{fill:#F8F8F8;}
	.st12{fill:#E6E6E6;}
	.st13{fill:#060606;}
	.st14{fill:#040404;}
	.st15{fill:#181818;}
	.st16{fill:#101010;}
	.st17{fill:#121212;}
	.st18{fill:#FCFCFC;}
	.st19{fill:#0B0B0B;}
	.st20{fill:#0E0E0E;}
	.st21{fill:#FFFFFF;}
	.st22{fill:#723B22;}
	.st23{fill:#052625;}
	.st24{fill:#EAD6C7;}
	.st25{fill:#B07454;}
	.st26{fill:#78CDD4;}
</style>
<g>
	<path d="M335.9,161.2c0,5.6,0,11.1,0,16.7c0,4.9,0.8,9.3,4.4,13c2.9,3,3.5,6.9,3.1,10.8c-1.4,14.1-2.7,28.2-14,38.8
		c-1.6,1.5-1.8,3.3-1.7,5.3c0.6,16.4-8,29-18.3,40.3c-4.4,4.9-5.8,8.9-3.4,14.8c3.9,9.5,6.8,19.3,13.8,27.3
		c5.4,6.1,12,10.1,19.3,12.2c15.4,4.4,30.4,10,45.6,15c6.2,2.1,12.4,4.4,18.8,6.2c12.2,3.4,21,11.2,27.5,21.7
		c3.9,6.3,6.9,13,8.4,20.6c2.1,10.6,5.3,21.1,8.5,31.5c2.3,7.7-1.6,13.4-9.5,13.3c-15.8-0.2-31.6-0.4-47.4-0.4
		c-40.7,0.1-81.4,0.4-122,0.4c-46.2,0-92.5-0.4-138.7-0.3c-19.2,0.1-38.5-0.9-57.7,0.2c-6.3,0.4-10.2-5.7-8.3-12.1
		c3.6-12,6.3-24.3,9.7-36.4c5.2-18.5,15.9-32.7,35.6-38.7c18.9-5.8,37.5-12.8,56.2-19.2c2.6-0.9,5.5-0.9,8.1-1.8
		c13.5-4.8,22.8-14,28-27.3c1.1-2.8,2.1-5.6,3.2-8.4c3.9-9.6,2.7-11.9-3.8-19.9c-9-10.9-17.1-22.6-16.7-37.8c0.1-3.3-1.2-5.5-3.3-8
		c-10.9-12.5-12.2-27.6-11.7-43.2c0-1,0.3-2.4,1-3c7.8-7.3,6.6-16.5,6.1-25.8c-0.4-9.6-0.8-19.2,0.2-28.9
		c4.6-42.3,41.4-78,85.9-74.4c13,1.1,25.5,3.4,36.9,9.6c7.1,3.9,13.2,9.5,16.6,17.2c3,6.9,6.4,13.4,11.6,19
		c5.3,5.5,5.7,13.2,6.9,20.3C336.5,140.2,336.5,150.7,335.9,161.2z" id="id_102" style="fill: rgb(23, 139, 123);"></path>
</g>
</svg>